<?xml version="1.0"?>
<svg xmlns="http://www.w3.org/2000/svg" viewBox="0 0 256 256" width="512" height="512"><path d="M183.665,82.223c-11.418-21.695,1.713-73.649-56.521-73.649S83.753,60.528,72.335,82.223c-4.467,8.487-6.413,17.484-4.864,25.557a22.554,22.554,0,0,1,19.647,21.545c1.288.511,2.631.992,4.057,1.426,18.085,5.5,28.319,11.55,32.939,14.781a5.578,5.578,0,0,0,6.207.157c5.012-3.189,16.122-9.343,34.5-14.938C191.087,122.758,193.657,101.207,183.665,82.223Z" fill="#414344"/><path d="M219.062,246.978l-10.671-79.565A15.632,15.632,0,0,0,196.6,153.121c-4.986-1.292-9.109-2.337-12.549-3.2a62.261,62.261,0,0,1-28.606-16.06c-12.865,4.639-21.029,9.221-25.122,11.825a5.578,5.578,0,0,1-6.207-.157c-3.753-2.625-11.212-7.108-23.576-11.649a62.278,62.278,0,0,1-12.641,9.6,9.147,9.147,0,0,1-.158,2.061,8.9,8.9,0,0,1-8.474,7.07,2.041,2.041,0,0,0-2.051,2.012v.143a5.032,5.032,0,0,1-2.8,4.5h0c-2.358,6.292-3.5,14.814,2.79,21.99q.673.768,1.3,1.524a41.091,41.091,0,0,1,8.2,36.18L78.143,253.5h134.75A6.179,6.179,0,0,0,219.062,246.978Z" fill="#414344"/><path d="M74.879,216.807a35.58,35.58,0,0,0-1.9-14.123A45.257,45.257,0,0,0,66.2,190.909c-7.552-9.863-9.315-22.318-9.431-31.116a5.021,5.021,0,0,1-4.306-2.841,15.61,15.61,0,0,0-4.854,10.461L36.938,246.978a6.179,6.179,0,0,0,6.169,6.522H72.476Z" fill="#5b5d60"/><path d="M208.391,167.413A15.632,15.632,0,0,0,196.6,153.121l-2.567-.663c-8.173,15.182-16.906,44.978-12.695,101.042h31.557a6.179,6.179,0,0,0,6.169-6.522Z" fill="#5b5d60"/><path d="M86.919,139.736a5.574,5.574,0,0,1-.5-3.994,22.231,22.231,0,0,0,.717-5.594,22.561,22.561,0,0,0-44.985-2.486,22.8,22.8,0,0,0,.573,8.1,5.59,5.59,0,0,1-.491,3.983,8.848,8.848,0,0,0,7.66,12.866,2.041,2.041,0,0,1,2.051,2.012v.143A5.047,5.047,0,0,0,57,159.816H72.168a5.046,5.046,0,0,0,5.046-5.047v-.143a2.041,2.041,0,0,1,2.051-2.012,8.814,8.814,0,0,0,7.654-12.878Z" fill="#edf4fc"/><path d="M72.476,253.5h5.667l8.563-34.542a41.091,41.091,0,0,0-8.2-36.18q-.629-.756-1.3-1.524c-6.294-7.176-5.148-15.7-2.79-21.99a4.984,4.984,0,0,1-2.25.552H57c-.078,0-.15-.019-.226-.023.116,8.8,1.879,21.253,9.431,31.116a45.257,45.257,0,0,1,6.782,11.775,35.58,35.58,0,0,1,1.9,14.123Z" fill="#b77035"/><ellipse cx="54.995" cy="133.438" rx="4.511" ry="5.075" fill="#fc657e"/><ellipse cx="74.167" cy="133.438" rx="4.511" ry="5.075" fill="#fc657e"/><path d="M78.533,71.775C93.149,57.59,110.039,42.9,128,42.9h0c17.961,0,34.851,14.7,49.468,28.88,1.282,1.245,2.492,2.549,3.639,3.9-7.071-24.1-.98-67.1-53.963-67.1-53.033,0-45.462,43.083-52.31,67.166Q76.58,73.679,78.533,71.775Z" fill="#5b5d60"/><path d="M128,31.266h0c-18.011,0-35.044,13.412-50.1,27.605A129.9,129.9,0,0,1,74.834,75.74q1.746-2.061,3.7-3.965C93.149,57.59,110.039,42.9,128,42.9h0c17.961,0,34.851,14.7,49.468,28.88,1.282,1.245,2.492,2.549,3.639,3.9a146.377,146.377,0,0,1-3.392-17.169C162.753,44.448,145.859,31.266,128,31.266Z" fill="#818182"/><path d="M128,42.9a41.577,41.577,0,0,0-18.336,4.714,116.442,116.442,0,0,0-10.1,8.937A32.269,32.269,0,0,0,89.8,79.717V92.473A38.32,38.32,0,0,0,128,130.681h0a38.317,38.317,0,0,0,38.205-38.205V79.724a32.285,32.285,0,0,0-9.767-23.178,116.485,116.485,0,0,0-10.1-8.938A41.582,41.582,0,0,0,128,42.9Z" fill="#f9d0b4"/><path d="M105.242,77.165a7.428,7.428,0,1,0,14.2,3.047Z" fill="#fc657e"/><path d="M150.758,77.165a7.428,7.428,0,1,1-14.2,3.047Z" fill="#fc657e"/><path d="M203.372,24.6h-2.266V22.33a3.071,3.071,0,1,0-6.142,0V24.6H192.7a3.071,3.071,0,0,0,0,6.142h2.265V33a3.071,3.071,0,1,0,6.142,0V30.738h2.266a3.071,3.071,0,0,0,0-6.142Z" fill="#f5c84c"/><path d="M43.857,101.366A10.8,10.8,0,0,1,35.2,92.888a.2.2,0,0,0-.384,0,10.794,10.794,0,0,1-8.654,8.478.19.19,0,0,0,0,.376,10.8,10.8,0,0,1,8.654,8.479.2.2,0,0,0,.384,0,10.8,10.8,0,0,1,8.654-8.479A.19.19,0,0,0,43.857,101.366Z" fill="#ef4460"/><circle cx="53.019" cy="77.285" r="3.285" fill="#f5c84c"/><circle cx="200.019" cy="128.285" r="3.285" fill="#ef4460"/><circle cx="29.019" cy="206.285" r="3.285" fill="#87d147"/><circle cx="181.019" cy="3.285" r="3.285" fill="#70d6f9"/><path d="M128,111.981a22.275,22.275,0,0,1-9.945-2.323,2.5,2.5,0,1,1,2.214-4.484,17.446,17.446,0,0,0,15.464,0,2.5,2.5,0,0,1,2.213,4.484A22.28,22.28,0,0,1,128,111.981Z"/><path d="M128,238.872a2.5,2.5,0,0,1-2.5-2.5V156.443a2.5,2.5,0,1,1,5,0v79.929A2.5,2.5,0,0,1,128,238.872Z"/><path d="M67.875,148.3a2.5,2.5,0,0,1-2.238-1.382l-1.056-2.111-1.056,2.111a2.5,2.5,0,1,1-4.471-2.237l1.727-3.454a4.248,4.248,0,0,1,7.6,0l1.727,3.454a2.5,2.5,0,0,1-2.233,3.619Z"/><path d="M60.07,162.316a2.5,2.5,0,0,1-2.5-2.5V154.3a2.5,2.5,0,0,1,5,0v5.514A2.5,2.5,0,0,1,60.07,162.316Z"/><path d="M69.092,162.316a2.5,2.5,0,0,1-2.5-2.5V154.3a2.5,2.5,0,0,1,5,0v5.514A2.5,2.5,0,0,1,69.092,162.316Z"/><path d="M127.344,149.058a8.127,8.127,0,0,1-4.663-1.477c-4.375-3.06-14.38-9-32.234-14.438-1.4-.427-2.792-.915-4.251-1.5a2.5,2.5,0,0,1-1.576-2.233A19.959,19.959,0,0,0,67.154,110.26a2.5,2.5,0,0,1-2.138-2.009c-1.609-8.385.157-17.788,5.107-27.193,2.938-5.582,4.068-13.676,5.265-22.245,3.282-23.5,7.367-52.739,51.756-52.739,44.668,0,49.415,29.511,53.228,53.223,1.347,8.37,2.618,16.276,5.5,21.761,6.167,11.716,7.372,23.417,3.394,32.947-3.729,8.933-11.93,15.55-23.719,19.138-18.108,5.511-29,11.547-33.89,14.655A8.028,8.028,0,0,1,127.344,149.058ZM89.5,127.557c.811.3,1.6.56,2.4.8,18.514,5.634,29.026,11.894,33.643,15.123a3.082,3.082,0,0,0,3.432.1c5.1-3.245,16.443-9.537,35.119-15.22,10.462-3.185,17.38-8.662,20.559-16.28,3.394-8.13,2.256-18.32-3.2-28.693-3.269-6.21-4.6-14.509-6.017-23.3-3.7-22.976-7.884-49.017-48.292-49.017-40.039,0-43.478,24.62-46.8,48.43-1.259,9.014-2.448,17.528-5.793,23.883-4.013,7.625-5.721,15.442-4.887,22.223A24.926,24.926,0,0,1,89.5,127.557Z"/><path d="M212.893,256H78.143a2.5,2.5,0,0,1-2.427-3.1l8.563-34.542a38.709,38.709,0,0,0-7.691-33.979q-.607-.731-1.259-1.474c-5.7-6.5-6.827-14.978-3.252-24.516a2.5,2.5,0,0,1,1.219-1.356,2.53,2.53,0,0,0,1.418-2.261v-.145a4.524,4.524,0,0,1,4.5-4.51,6.4,6.4,0,0,0,2.5-.588,6.308,6.308,0,0,0,3.571-4.459,6.6,6.6,0,0,0,.113-1.5,2.5,2.5,0,0,1,1.252-2.255A59.782,59.782,0,0,0,98.784,132.1a2.5,2.5,0,0,1,2.615-.565c12.3,4.516,19.919,8.989,24.147,11.946a3.082,3.082,0,0,0,3.432.1c3.835-2.44,12.263-7.252,25.618-12.068a2.5,2.5,0,0,1,2.6.571A59.817,59.817,0,0,0,184.655,147.5c3.447.861,7.576,1.908,12.57,3.2a18.048,18.048,0,0,1,13.657,16.471l10.657,79.473c.009.063.015.128.019.192A8.68,8.68,0,0,1,212.893,256ZM81.338,251H212.893a3.677,3.677,0,0,0,3.676-3.8l-10.655-79.456c-.009-.064-.015-.129-.018-.193a13.077,13.077,0,0,0-9.909-12.006c-4.994-1.295-9.11-2.338-12.545-3.2a64.825,64.825,0,0,1-28.606-15.6,124.056,124.056,0,0,0-23.174,11.05,8.067,8.067,0,0,1-8.981-.217c-3.133-2.191-10.014-6.436-21.545-10.806a64.833,64.833,0,0,1-10.787,8.164q-.053.548-.156,1.082a11.231,11.231,0,0,1-6.422,8.064,11.451,11.451,0,0,1-4.063,1.013,7.488,7.488,0,0,1-3.24,5.851c-2.579,7.459-1.7,13.733,2.619,18.657q.7.793,1.344,1.573a43.727,43.727,0,0,1,8.7,38.381Z"/><path d="M72.476,256H43.107a8.68,8.68,0,0,1-8.665-9.162c0-.064.01-.129.018-.193l10.659-79.472a18.067,18.067,0,0,1,5.622-12.034,2.5,2.5,0,0,1,3.973.726,2.532,2.532,0,0,0,2.167,1.431,2.5,2.5,0,0,1,2.388,2.464c.109,8.348,1.746,20.265,8.916,29.629a48.326,48.326,0,0,1,7.155,12.466,37.886,37.886,0,0,1,2.034,15.115h0l-2.4,36.694A2.5,2.5,0,0,1,72.476,256Zm-33.045-8.8a3.679,3.679,0,0,0,3.676,3.8H70.134l2.251-34.357a32.907,32.907,0,0,0-1.762-13.13,43.4,43.4,0,0,0-6.408-11.084c-7.439-9.716-9.538-21.672-9.894-30.62a7.543,7.543,0,0,1-1.87-1.035,13.054,13.054,0,0,0-2.346,6.777c0,.065-.01.13-.018.194Zm35.448-30.394h0Z"/><path d="M212.893,256H181.336a2.5,2.5,0,0,1-2.493-2.313c-4.265-56.783,4.708-87.035,12.987-102.414a2.5,2.5,0,0,1,2.825-1.235l2.571.664a18.048,18.048,0,0,1,13.656,16.471l10.657,79.472c.009.064.015.129.019.193A8.68,8.68,0,0,1,212.893,256Zm-29.232-5h29.232a3.677,3.677,0,0,0,3.676-3.8l-10.655-79.456c-.009-.064-.015-.129-.018-.193a13.077,13.077,0,0,0-9.909-12.006l-.656-.17C187.751,170.457,180.039,198.985,183.661,251Z"/><path d="M72.167,162.316H57a7.556,7.556,0,0,1-7.54-7.217,11.418,11.418,0,0,1-4.067-1.016,11.285,11.285,0,0,1-5.37-15.486,3.079,3.079,0,0,0,.289-2.21,25.061,25.061,0,1,1,49.333-6.24,24.8,24.8,0,0,1-.8,6.223,3.091,3.091,0,0,0,.293,2.211h0a11.287,11.287,0,0,1-5.365,15.5,11.441,11.441,0,0,1-4.063,1.014A7.556,7.556,0,0,1,72.167,162.316Zm-7.562-52.229a21.023,21.023,0,0,0-2.3.127A20.064,20.064,0,0,0,45.15,135.145a8.109,8.109,0,0,1-.694,5.754,6.351,6.351,0,0,0,5.495,9.216,4.524,4.524,0,0,1,4.5,4.51v.145A2.55,2.55,0,0,0,57,157.316H72.167a2.549,2.549,0,0,0,2.547-2.546v-.145a4.524,4.524,0,0,1,4.5-4.51,6.406,6.406,0,0,0,2.5-.588,6.285,6.285,0,0,0,2.988-8.636,8.1,8.1,0,0,1-.7-5.777,19.787,19.787,0,0,0,.637-4.967,20.089,20.089,0,0,0-6.676-14.941A19.83,19.83,0,0,0,64.605,110.087Z"/><path d="M78.143,256H72.476a2.5,2.5,0,0,1-2.5-2.664l2.4-36.693a32.907,32.907,0,0,0-1.762-13.13,43.4,43.4,0,0,0-6.408-11.084c-8-10.452-9.826-23.5-9.946-32.6a2.5,2.5,0,0,1,.76-1.829,2.533,2.533,0,0,1,1.851-.7c.082,0,.162.011.243.02H72.167a2.505,2.505,0,0,0,1.128-.286,2.5,2.5,0,0,1,3.464,3.112c-2.928,7.815-2.145,14.363,2.328,19.464q.7.793,1.344,1.573a43.727,43.727,0,0,1,8.7,38.381L80.57,254.1A2.5,2.5,0,0,1,78.143,256Zm-3-5h1.042l8.092-32.644a38.709,38.709,0,0,0-7.691-33.979q-.607-.731-1.259-1.474c-4.906-5.593-6.423-12.65-4.475-20.587H59.349c.4,8.107,2.37,18.628,8.836,27.073a48.326,48.326,0,0,1,7.155,12.466,37.886,37.886,0,0,1,2.034,15.115Z"/><path d="M55,141.013a7.6,7.6,0,0,1,0-15.15,7.6,7.6,0,0,1,0,15.15Zm0-10.15a2.654,2.654,0,0,0,0,5.15,2.654,2.654,0,0,0,0-5.15Z"/><path d="M74.167,141.013a7.6,7.6,0,1,1,7.011-7.575A7.318,7.318,0,0,1,74.167,141.013Zm0-10.15a2.654,2.654,0,1,0,2.011,2.575A2.378,2.378,0,0,0,74.167,130.863Z"/><path d="M74.833,78.24a2.5,2.5,0,0,1-2.4-3.184,125.464,125.464,0,0,0,2.956-16.245c3.283-23.5,7.368-52.737,51.758-52.737,44.668,0,49.416,29.51,53.231,53.222a132.836,132.836,0,0,0,3.131,15.674,2.5,2.5,0,0,1-4.3,2.323c-1.129-1.328-2.3-2.581-3.476-3.724C161.681,59.938,145.25,45.4,128,45.4S94.32,59.938,80.274,73.569h0c-1.207,1.172-2.4,2.446-3.532,3.787A2.5,2.5,0,0,1,74.833,78.24Zm3.7-6.465h0Zm48.611-60.7c-40.04,0-43.479,24.619-46.806,48.428-.4,2.832-.781,5.59-1.225,8.242C93.349,54.121,109.874,40.4,128,40.4c18.045,0,34.5,13.6,48.694,27.163-.442-2.41-.844-4.908-1.256-7.468C171.741,37.115,167.552,11.074,127.144,11.074Z"/><path d="M74.833,78.24a2.5,2.5,0,0,1-2.4-3.184,125.5,125.5,0,0,0,2.955-16.235l.041-.3a2.5,2.5,0,0,1,.761-1.473C91.026,43.065,108.786,28.766,128,28.766h0c19.131,0,36.73,14.112,51.424,27.917a2.5,2.5,0,0,1,.756,1.423l.193,1.2a132.8,132.8,0,0,0,3.13,15.663,2.5,2.5,0,0,1-4.3,2.323c-1.129-1.328-2.3-2.581-3.476-3.724C161.681,59.938,145.25,45.4,128,45.4S94.32,59.938,80.274,73.569c-1.207,1.172-2.4,2.446-3.532,3.787A2.5,2.5,0,0,1,74.833,78.24Zm5.423-18.151c-.367,2.626-.73,5.187-1.144,7.655C93.348,54.121,109.874,40.4,128,40.4c18.045,0,34.5,13.6,48.693,27.163-.441-2.407-.842-4.9-1.254-7.456l-.056-.357C161.532,46.8,145.132,33.766,128,33.766,110.8,33.766,94.247,46.97,80.256,60.089Z"/><path d="M128,133.181A40.753,40.753,0,0,1,87.3,92.473V79.717A34.964,34.964,0,0,1,97.82,54.752a118.741,118.741,0,0,1,10.325-9.128,2.515,2.515,0,0,1,.416-.259c6.8-3.344,13.159-4.97,19.439-4.97s12.64,1.626,19.438,4.97a2.535,2.535,0,0,1,.416.258,120.838,120.838,0,0,1,10.326,9.129,34.966,34.966,0,0,1,10.525,24.972V92.477A40.751,40.751,0,0,1,128,133.181ZM110.989,49.744a115.655,115.655,0,0,0-9.686,8.6A29.936,29.936,0,0,0,92.3,79.717V92.473a35.705,35.705,0,1,0,71.41,0V79.724A29.939,29.939,0,0,0,154.7,58.34a117.639,117.639,0,0,0-9.686-8.6A38.564,38.564,0,0,0,128,45.4,38.571,38.571,0,0,0,110.989,49.744Z"/><path d="M112.014,90.141a9.94,9.94,0,0,1-9.928-9.929,9.8,9.8,0,0,1,.879-4.078,2.5,2.5,0,0,1,2.8-1.413l14.2,3.047a2.5,2.5,0,0,1,1.975,2.444A9.939,9.939,0,0,1,112.014,90.141Zm-4.927-10.023c0,.031,0,.063,0,.094a4.928,4.928,0,0,0,9.46,1.936Z"/><path d="M143.986,90.141a9.94,9.94,0,0,1-9.928-9.929,2.5,2.5,0,0,1,1.975-2.444l14.2-3.047a2.5,2.5,0,0,1,2.8,1.41,9.8,9.8,0,0,1,.88,4.081A9.939,9.939,0,0,1,143.986,90.141Zm-4.532-7.993a4.928,4.928,0,0,0,9.46-1.936c0-.031,0-.063,0-.094Z"/></svg>
