<svg id="Capa_1" enable-background="new 0 0 512.242 512.242" height="512" viewBox="0 0 512.242 512.242" width="512" xmlns="http://www.w3.org/2000/svg"><g><path d="m490.694 21.481c-28.623-28.443-75.195-28.443-103.818 0-7.174 7.13-12.669 15.481-16.321 24.574-28.776-22.251-70.508-20.263-96.942 6.005-13.896 13.809-21.549 32.176-21.548 51.717 0 19.542 7.653 37.908 21.548 51.716 7.62 7.573 16.519 13.109 26.007 16.649l-295.194 293.862c-5.901 5.866-5.901 15.414.001 21.279l19.574 20.451c5.854 5.817 15.308 5.813 21.156-.01l45.423-47.195 37.429 37.195c2.926 2.908 6.75 4.36 10.573 4.36 3.854 0 7.709-1.477 10.64-4.427 5.84-5.877 5.81-15.374-.066-21.213l-10.316-10.252 18.473-18.358c.034.034.062.072.096.106l10.45 10.384c2.926 2.908 6.749 4.36 10.573 4.36 3.855 0 7.709-1.477 10.64-4.427 5.84-5.876 5.81-15.373-.066-21.213l-37.397-37.163 188.308-186.644c3.652 8.961 9.103 17.19 16.188 24.23 14.311 14.221 33.11 21.332 51.909 21.332 18.798 0 37.597-7.111 51.909-21.332 13.896-13.809 21.549-32.176 21.548-51.717 0-16.412-5.417-31.983-15.377-44.734 8.96-3.551 17.358-8.905 24.601-16.102 13.896-13.809 21.548-32.176 21.548-51.717-.001-19.54-7.654-37.907-21.549-51.716zm-208.63 82.297c-.001-11.493 4.508-22.302 12.695-30.438 8.482-8.429 19.621-12.643 30.763-12.643 11.139 0 22.282 4.215 30.762 12.642 8.186 8.136 12.695 18.945 12.695 30.438-.001 11.492-4.509 22.302-12.695 30.437-16.963 16.856-44.562 16.856-61.525 0-8.186-8.134-12.695-18.944-12.695-30.436zm156.711 112.412c-16.963 16.855-44.562 16.855-61.525 0-8.186-8.136-12.695-18.945-12.695-30.438 0-11.492 4.509-22.302 12.695-30.437 8.482-8.428 19.622-12.642 30.763-12.642s22.281 4.214 30.762 12.642c8.186 8.135 12.695 18.945 12.695 30.437s-4.509 22.302-12.695 30.438zm30.772-112.555c-16.962 16.856-44.562 16.856-61.525 0-8.186-8.136-12.695-18.945-12.695-30.437s4.509-22.302 12.695-30.438c8.482-8.429 19.621-12.642 30.763-12.642 11.139 0 22.282 4.215 30.763 12.642 8.186 8.136 12.695 18.945 12.695 30.438-.001 11.492-4.51 22.302-12.696 30.437z"/></g></svg>