<svg id="_x33_0" enable-background="new 0 0 64 64" height="512" viewBox="0 0 64 64" width="512" xmlns="http://www.w3.org/2000/svg"><g><path d="m51 48.835v2.579l-.293.293c-.337.337-3.726 3.293-18.707 3.293s-18.37-2.956-18.707-3.293l-.293-.293v-2.579c-6.892 1.537-10 3.667-10 5.165 0 2.923 11.032 7 29 7s29-4.077 29-7c0-1.498-3.108-3.628-10-5.165z"/><path d="m39 37c1.654 0 3-1.346 3-3v-.719l-5.903 1.476c.336 1.289 1.51 2.243 2.903 2.243z"/><path d="m40.054 47.608c-1.307-1.894-3.905-4.608-8.054-4.608-4.104 0-6.715 2.714-8.036 4.605 1.792-.284 4.584-.605 8.036-.605 3.464 0 6.262.323 8.054.608z"/><path d="m25 37c1.393 0 2.567-.954 2.903-2.243l-5.903-1.476v.719c0 1.654 1.346 3 3 3z"/><path d="m49 50.495v-7.259c0-1.308-.31-2.618-.895-3.789-.723-1.448-1.105-3.067-1.105-4.683v-1.73c0-1.207-.251-2.376-.746-3.477l-6.273-13.939c-1.856.899-3.918 1.382-5.981 1.382v-2c1.781 0 3.563-.419 5.161-1.204l-1.074-2.386 1.824-.82 4.309 9.574 11.472 1.639c.093.015.172-.026.215-.063.042-.037.093-.102.093-.204 0-.073-.03-.144-.082-.194l-18.043-17.556c-.802-.515-1.727-.786-2.682-.786-1.665 0-3.21.827-4.133 2.212l-8.844 13.266c3.011 1.606 6.457 2.522 9.615 2.522h.169v2h-.169c-3.593 0-7.363-1.015-10.728-2.853l-1.732 2.598c2.323 1.581 4.974 2.703 7.728 3.255l.099.02-.396 1.96c-3.094-.619-6-1.845-8.539-3.571l-1.986 2.979c-.836 1.253-1.277 2.711-1.277 4.216 0 .818.131 1.626.391 2.405l.854 2.562c.546 1.638.31 3.399-.647 4.836-.392.585-.598 1.267-.598 1.972v7.109c1.05.621 5.213 2.512 17 2.512 11.87 0 15.963-1.876 17-2.505zm-15-17.276 10-2.5v3.281c0 2.757-2.243 5-5 5s-5-2.243-5-5zm-14-2.5 10 2.5v.781c0 2.757-2.243 5-5 5s-5-2.243-5-5zm.289 19.737.792-1.85c.133-.31 3.347-7.606 10.919-7.606s10.786 7.296 10.919 7.606l.793 1.85-1.954-.485c-.039-.01-3.969-.971-9.758-.971s-9.719.961-9.758.971z"/></g></svg>